<?xml version="1.0" encoding="UTF-8" standalone="no" ?>
<!DOCTYPE svg PUBLIC "-//W3C//DTD SVG 1.1//EN" "http://www.w3.org/Graphics/SVG/1.1/DTD/svg11.dtd">
<svg xmlns="http://www.w3.org/2000/svg" xmlns:xlink="http://www.w3.org/1999/xlink" version="1.1" width="1280" height="1024" viewBox="0 0 1280 1024" xml:space="preserve">
<desc>Created with Fabric.js 5.3.0</desc>
<defs>
</defs>
<g transform="matrix(1 0 0 1 640 512)" id="background-logo"  >
<rect style="stroke: none; stroke-width: 0; stroke-dasharray: none; stroke-linecap: butt; stroke-dashoffset: 0; stroke-linejoin: miter; stroke-miterlimit: 4; fill: rgb(255,255,255); fill-rule: nonzero; opacity: 1;"  paint-order="stroke"  x="-640" y="-512" rx="0" ry="0" width="1280" height="1024" />
</g>
<g transform="matrix(1.9211538461538462 0 0 1.9211538461538462 639.5334018362337 511.62672146898694)" id="logo-logo"  >
<g style=""  paint-order="stroke"   >
		<g transform="matrix(0.9804625479611756 0 0 0.9804625479611755 0 -2.842171e-14)"  >
<g style=""  paint-order="stroke"   >
		<g transform="matrix(0.09599982582853908 0 0 0.09599982582853908 -21.42384334207486 33.84521859498068)"  >
<path style="stroke: none; stroke-width: 1; stroke-dasharray: none; stroke-linecap: butt; stroke-dashoffset: 0; stroke-linejoin: miter; stroke-miterlimit: 4; fill: rgb(0,0,0); fill-rule: nonzero; opacity: 1;"  paint-order="stroke"  transform=" translate(-5623.285, -8620.269606235912)" d="M 5005.06 8167.74 L 5862.33 8194.89 C 5882.57 8195.49 5899.83 8207.33 5908.3099999999995 8224.25 L 5908.4 8224.21 L 5998.23 8403.839999999998 C 5966.5599999999995 8420.159999999998 5934.709999999999 8435.96 5902.8099999999995 8451.239999999998 L 5827.259999999999 8300.159999999998 L 5087.449999999999 8276.729999999998 L 5286.289999999999 8674.349999999999 C 5243.159999999999 8682.599999999999 5204.669999999999 8688.149999999998 5176.179999999999 8692.39 L 4952.249999999999 8244.599999999999 C 4939.089999999999 8218.289999999999 4949.749999999999 8186.289999999998 4976.069999999999 8173.129999999998 C 4985.379999999999 8168.469999999998 4995.399999999999 8166.799999999998 5005.049999999998 8167.749999999998 z M 6042.84 8493.05 L 6294.32 8995.929999999998 C 6307.48 9022.239999999998 6296.82 9054.239999999998 6270.5 9067.409999999998 C 6261.19 9072.059999999998 6251.17 9073.739999999998 6241.52 9072.789999999997 L 5384.25 9045.639999999998 C 5364.01 9045.039999999997 5346.75 9033.199999999997 5338.27 9016.279999999997 L 5338.18 9016.319999999998 L 5239.41 8818.809999999998 C 5261.38 8813.269999999997 5292.84 8802.999999999998 5341.7 8785.149999999998 L 5419.32 8940.369999999997 L 6159.129999999999 8963.799999999997 L 5946.19 8537.989999999998 C 5969.259999999999 8527.549999999997 5991.8099999999995 8517.169999999998 6013.599999999999 8506.929999999998 C 6023.509999999999 8502.269999999999 6033.249999999999 8497.649999999998 6042.849999999999 8493.05 z" stroke-linecap="round" />
</g>
		<g transform="matrix(0.09599982582853908 0 0 0.09599982582853908 43.639558614088514 1.3084291243956159)"  >
<path style="stroke: none; stroke-width: 1; stroke-dasharray: none; stroke-linecap: butt; stroke-dashoffset: 0; stroke-linejoin: miter; stroke-miterlimit: 4; fill: rgb(0,0,0); fill-rule: nonzero; opacity: 1;"  paint-order="stroke"  transform=" translate(-6301.030000000001, -8281.344101009501)" d="M 6347.62 7646.55 L 5922.5599999999995 8252.51 L 5998.24 8403.84 C 5966.57 8420.16 5934.719999999999 8435.960000000001 5902.82 8451.24 L 5813.12 8271.86 L 5813.21 8271.810000000001 C 5804.76 8254.880000000001 5805.64 8233.970000000001 5817.3 8217.420000000002 L 6309.85 7515.250000000002 C 6314.88 7506.960000000002 6322.2300000000005 7499.940000000001 6331.54 7495.290000000002 C 6357.85 7482.130000000002 6389.85 7492.790000000002 6403.01 7519.1100000000015 L 6625.6900000000005 7964.4000000000015 C 6603.950000000001 7986.010000000001 6576.72 8012.280000000002 6544.72 8040.690000000001 L 6347.62 7646.560000000001 z M 6028.24 8500.01 L 6233.01 8946.58 L 6679.49 8310.17 L 6603.82 8158.86 C 6621.11 8145.15 6637.4 8131.4 6653.86 8116.78 C 6664.839999999999 8107.0199999999995 6675.9 8096.86 6686.79 8086.5599999999995 L 6788.94 8290.82 L 6788.849999999999 8290.869999999999 C 6797.299999999999 8307.8 6796.419999999999 8328.71 6784.759999999999 8345.269999999999 L 6292.209999999999 9047.439999999999 C 6287.179999999999 9055.73 6279.829999999999 9062.749999999998 6270.5199999999995 9067.399999999998 C 6244.209999999999 9080.559999999998 6212.209999999999 9069.889999999998 6199.049999999999 9043.579999999998 L 5946.209999999999 8537.989999999998 C 5973.629999999999 8525.579999999998 6001.109999999999 8513.029999999999 6028.249999999999 8500.019999999999 z" stroke-linecap="round" />
</g>
		<g transform="matrix(0.09599982582853908 0 0 0.09599982582853908 26.059196813039193 -33.84422079543856)"  >
<path style="stroke: none; stroke-width: 1; stroke-dasharray: none; stroke-linecap: butt; stroke-dashoffset: 0; stroke-linejoin: miter; stroke-miterlimit: 4; fill: rgb(0,0,0); fill-rule: nonzero; opacity: 1;"  paint-order="stroke"  transform=" translate(-6117.900898990497, -7915.169999999998)" d="M 6736.13 8367.68 L 6542.1900000000005 8361.54 C 6547.120000000001 8326.52 6549.34 8291.02 6548.72 8255.37 L 6653.740000000001 8258.7 L 6603.820000000001 8158.880000000001 C 6621.110000000001 8145.170000000001 6637.400000000001 8131.420000000001 6653.860000000001 8116.800000000001 C 6664.84 8107.040000000001 6675.900000000001 8096.880000000001 6686.790000000001 8086.580000000001 L 6788.9400000000005 8290.84 C 6802.1 8317.15 6791.4400000000005 8349.15 6765.120000000001 8362.32 C 6755.81 8366.98 6745.790000000001 8368.65 6736.140000000001 8367.699999999999 z M 6544.72 8040.68 L 6321.87 7595.06 L 5582.0599999999995 7571.63 L 5615.87 7639.24 C 5599.54 7645.88 5583.33 7653.19 5567.3 7661.21 C 5551.26 7669.2300000000005 5535.6900000000005 7677.81 5520.58 7686.9 L 5446.86 7539.49 C 5433.7 7513.179999999999 5444.37 7481.179999999999 5470.679999999999 7468.0199999999995 C 5479.99 7463.36 5490.009999999999 7461.69 5499.659999999999 7462.639999999999 L 6356.9299999999985 7489.789999999999 C 6377.169999999998 7490.389999999999 6394.4299999999985 7502.229999999999 6402.909999999998 7519.139999999999 L 6402.999999999998 7519.099999999999 L 6625.6799999999985 7964.389999999999 C 6603.939999999999 7985.999999999999 6576.709999999998 8012.2699999999995 6544.709999999998 8040.679999999999 z" stroke-linecap="round" />
</g>
		<g transform="matrix(0.09599982582853908 0 0 0.09599982582853908 -54.25394760759434 -1.3090061268196678)"  >
<path style="stroke: none; stroke-width: 1; stroke-dasharray: none; stroke-linecap: butt; stroke-dashoffset: 0; stroke-linejoin: miter; stroke-miterlimit: 4; fill: rgb(0,0,0); fill-rule: nonzero; opacity: 1;"  paint-order="stroke"  transform=" translate(-5281.304126783043, -8254.0791010095)" d="M 5393.58 8888.88 L 5453.92 8802.859999999999 C 5482.07 8824.749999999998 5511.81 8844.259999999998 5542.78 8861.319999999998 L 5431.349999999999 9020.169999999998 C 5426.32 9028.46 5418.969999999999 9035.479999999998 5409.66 9040.129999999997 C 5383.349999999999 9053.289999999997 5351.349999999999 9042.619999999997 5338.19 9016.309999999998 L 5239.419999999999 8818.799999999997 C 5261.389999999999 8813.259999999997 5292.849999999999 8802.989999999998 5341.709999999999 8785.139999999998 L 5393.589999999999 8888.869999999997 z M 5176.19 8692.39 L 4952.259999999999 8244.599999999999 L 4952.349999999999 8244.55 C 4943.9 8227.619999999999 4944.78 8206.71 4956.44 8190.159999999999 L 5448.99 7487.989999999999 C 5454.0199999999995 7479.699999999999 5461.37 7472.689999999999 5470.679999999999 7468.029999999999 C 5496.99 7454.869999999999 5528.99 7465.529999999999 5542.15 7491.8499999999985 L 5615.87 7639.259999999998 C 5599.54 7645.899999999999 5583.33 7653.209999999998 5567.3 7661.229999999999 C 5551.26 7669.249999999999 5535.6900000000005 7677.829999999999 5520.58 7686.919999999998 L 5486.7699999999995 7619.299999999998 L 5061.709999999999 8225.259999999998 L 5286.299999999999 8674.369999999999 C 5243.169999999999 8682.63 5204.679999999999 8688.169999999998 5176.19 8692.41 z" stroke-linecap="round" />
</g>
		<g transform="matrix(0.09599982582853908 0 0 0.09599982582853908 2.318379105866711 -0.00044219784524557326)"  >
<path style="stroke: none; stroke-width: 1; stroke-dasharray: none; stroke-linecap: butt; stroke-dashoffset: 0; stroke-linejoin: miter; stroke-miterlimit: 4; fill: rgb(0,0,0); fill-rule: nonzero; opacity: 1;"  paint-order="stroke"  transform=" translate(-5870.600265866695, -8267.71)" d="M 5584.69 7695.78 C 5742.599999999999 7616.8099999999995 5917.54 7609.3099999999995 6072.73 7661.03 C 6227.969999999999 7712.7699999999995 6363.509999999999 7823.78 6442.54 7981.8099999999995 C 6460.39 8017.509999999999 6474.58 8054.08 6485.2699999999995 8091.089999999999 C 6456.65 8114.279999999999 6425.66 8137.999999999999 6393.33 8161.589999999999 C 6384.18 8116.619999999999 6369.03 8072.11 6347.53 8029.11 C 6281.719999999999 7897.5 6168.719999999999 7805.009999999999 6039.24 7761.86 C 5909.7 7718.69 5763.71 7724.92 5632 7790.79 C 5500.39 7856.6 5407.89 7969.6 5364.74 8099.07 C 5321.57 8228.61 5327.8 8374.6 5393.67 8506.32 C 5415.78 8550.529999999999 5443.22 8590.32 5474.81 8625.31 C 5436.31 8637.699999999999 5399.160000000001 8648.46 5363.5 8657.38 C 5339.07 8625.509999999998 5317.3 8590.869999999999 5298.67 8553.619999999999 C 5219.7 8395.71 5212.2 8220.769999999999 5263.92 8065.579999999999 C 5315.66 7910.339999999999 5426.67 7774.799999999999 5584.7 7695.769999999999 z M 6508.959999999999 8227.58 C 6514.129999999999 8310.21 6503.069999999999 8392.48 6477.289999999999 8469.84 C 6425.549999999999 8625.08 6314.539999999999 8760.62 6156.509999999999 8839.64 C 5998.599999999999 8918.609999999999 5823.659999999999 8926.109999999999 5668.469999999999 8874.39 C 5587.0599999999995 8847.26 5511.07 8803.82 5445.8099999999995 8745.849999999999 C 5480.3099999999995 8732.539999999999 5518.78 8717.46 5559.74 8701.119999999999 C 5603.42 8732.38 5651.429999999999 8756.73 5701.96 8773.57 C 5831.5 8816.74 5977.49 8810.5 6109.21 8744.64 C 6240.82 8678.83 6333.31 8565.83 6376.46 8436.349999999999 C 6391.53 8391.13 6400.57 8343.909999999998 6403.16 8295.989999999998 C 6419.67 8285.689999999999 6435.13 8275.859999999999 6449.62 8266.539999999997 C 6471.41 8252.519999999997 6491.01 8239.669999999996 6508.96 8227.579999999998 z" stroke-linecap="round" />
</g>
		<g transform="matrix(0.09599982582853908 0 0 0.09599982582853908 0 -4.65569499307685)"  >
<path style="stroke: none; stroke-width: 1; stroke-dasharray: none; stroke-linecap: butt; stroke-dashoffset: 0; stroke-linejoin: miter; stroke-miterlimit: 4; fill: rgb(0,0,0); fill-rule: nonzero; opacity: 1;"  paint-order="stroke"  transform=" translate(-5846.450439699223, -8219.217695404092)" d="M 6522.72 7578.07 C 6715.63 7559.62 6855.2300000000005 7595.86 6903.55 7692.91 C 6958.46 7803.2 6879.66 7960.23 6707.87 8124.95 C 6549.84 8276.47 6310.389999999999 8440.74 6026.99 8581.84 C 5743.59 8722.94 5468.19 8815 5252.03 8849.77 C 5017.05 8887.58 4844.26 8855.810000000001 4789.349999999999 8745.51 C 4741.03 8648.460000000001 4796.259999999999 8515.23 4927.249999999999 8372.41 L 4978.049999999999 8474.45 C 4896.2699999999995 8569.070000000002 4860.07 8648.490000000002 4884.73 8698.03 C 4916.41 8761.67 5047.98 8774.87 5235.089999999999 8744.77 C 5441.0199999999995 8711.640000000001 5705.419999999999 8622.92 5979.509999999999 8486.460000000001 C 6253.589999999999 8350.000000000002 6483.749999999999 8192.490000000002 6634.299999999999 8048.140000000001 C 6771.089999999999 7916.980000000001 6839.86 7804.040000000001 6808.169999999999 7740.4000000000015 C 6783.509999999999 7690.8600000000015 6698.3099999999995 7671.890000000001 6573.5199999999995 7680.1100000000015 L 6522.719999999999 7578.0700000000015 z" stroke-linecap="round" />
</g>
</g>
</g>
</g>
</g>
</svg>
